<?xml version="1.0" encoding="UTF-8" standalone="no"?>
<svg
   xmlns:dc="http://purl.org/dc/elements/1.1/"
   xmlns:cc="http://creativecommons.org/ns#"
   xmlns:rdf="http://www.w3.org/1999/02/22-rdf-syntax-ns#"
   xmlns:svg="http://www.w3.org/2000/svg"
   xmlns="http://www.w3.org/2000/svg"
   width="206.40553mm"
   height="148.42331mm"
   viewBox="0 0 206.40553 148.42331"
   version="1.1"
   id="svg8">
  <defs
     id="defs2">
    <clipPath
       id="GlassClip">
      <path
         d="m 380.857,346.164 c -1.247,4.651 -4.668,8.421 -9.196,10.06 -9.332,3.377 -26.2,7.817 -42.301,3.5 -16.101,-4.317 -28.485,-16.599 -34.877,-24.192 -3.101,-3.684 -4.177,-8.66 -2.93,-13.311 l 7.453,-27.798 c 0.756,-2.82 3.181,-4.868 6.088,-5.13 6.755,-0.61 20.546,-0.608 41.785,5.087 21.239,5.695 33.181,12.591 38.725,16.498 2.387,1.682 3.461,4.668 2.705,7.488 z"
         id="path833" />
    </clipPath>
    <clipPath
       id="cordClip">
      <rect
         width="800"
         height="600"
         id="rect836"
         x="0"
         y="0" />
    </clipPath>
    <defs
       id="defs839">
      <clipPath
         id="clipPath1002">
        <path
           d="m 380.857,346.164 c -1.247,4.651 -4.668,8.421 -9.196,10.06 -9.332,3.377 -26.2,7.817 -42.301,3.5 -16.101,-4.317 -28.485,-16.599 -34.877,-24.192 -3.101,-3.684 -4.177,-8.66 -2.93,-13.311 l 7.453,-27.798 c 0.756,-2.82 3.181,-4.868 6.088,-5.13 6.755,-0.61 20.546,-0.608 41.785,5.087 21.239,5.695 33.181,12.591 38.725,16.498 2.387,1.682 3.461,4.668 2.705,7.488 z"
           id="path1000" />
      </clipPath>
      <clipPath
         id="clipPath1006">
        <rect
           width="800"
           height="600"
           id="rect1004"
           x="0"
           y="0" />
      </clipPath>
    </defs>
  </defs>
  <metadata
     id="metadata5">
    <rdf:RDF>
      <cc:Work
         rdf:about="">
        <dc:format>image/svg+xml</dc:format>
        <dc:type
           rdf:resource="http://purl.org/dc/dcmitype/StillImage" />
        <dc:title></dc:title>
      </cc:Work>
    </rdf:RDF>
  </metadata>
  <g
     id="layer1"
     transform="translate(231.53266,-41.449057)">
    <g
       id="planet"
       transform="matrix(0.26458333,0,0,0.26458333,-213.12443,37.079463)"
       style="stroke:#ffffff">
      <circle
         fill="none"
         stroke="#0e0620"
         stroke-width="3"
         stroke-miterlimit="10"
         cx="572.85901"
         cy="108.803"
         r="90.788002"
         id="circle841"
         style="stroke:#ffffff" />
      <circle
         id="craterBig"
         fill="none"
         stroke="#0e0620"
         stroke-width="3"
         stroke-miterlimit="10"
         cx="548.89099"
         cy="62.319"
         r="13.074"
         style="stroke:#ffffff" />
      <circle
         id="craterSmall"
         fill="none"
         stroke="#0e0620"
         stroke-width="3"
         stroke-miterlimit="10"
         cx="591.74298"
         cy="158.918"
         r="7.9889998"
         style="stroke:#ffffff" />
      <path
         id="ring"
         fill="none"
         stroke="#0e0620"
         stroke-width="3"
         stroke-linecap="round"
         stroke-miterlimit="10"
         d="m 476.562,101.461 c -30.404,2.164 -49.691,4.221 -49.691,8.007 0,6.853 63.166,12.408 141.085,12.408 77.919,0 141.085,-5.555 141.085,-12.408 0,-3.378 -15.347,-4.988 -40.243,-7.225"
         style="stroke:#ffffff" />
      <path
         id="ringShadow"
         opacity="0.5"
         fill="none"
         stroke="#0e0620"
         stroke-width="3"
         stroke-linecap="round"
         stroke-miterlimit="10"
         d="m 483.985,127.43 c 23.462,1.531 52.515,2.436 83.972,2.436 36.069,0 68.978,-1.19 93.922,-3.149"
         style="stroke:#ffffff" />
    </g>
    <g
       id="stars"
       transform="matrix(0.26458333,0,0,0.26458333,-213.12443,37.079463)"
       style="stroke:#ffffff">
      <g
         id="starsBig"
         style="stroke:#ffffff">
        <g
           id="g852"
           style="stroke:#ffffff">
          <line
             fill="none"
             stroke="#0e0620"
             stroke-width="3"
             stroke-linecap="round"
             stroke-miterlimit="10"
             x1="518.07001"
             y1="245.375"
             x2="518.07001"
             y2="266.58099"
             id="line848"
             style="stroke:#ffffff" />
          <line
             fill="none"
             stroke="#0e0620"
             stroke-width="3"
             stroke-linecap="round"
             stroke-miterlimit="10"
             x1="508.129"
             y1="255.978"
             x2="528.01001"
             y2="255.978"
             id="line850"
             style="stroke:#ffffff" />
        </g>
        <g
           id="g858"
           style="stroke:#ffffff">
          <line
             fill="none"
             stroke="#0e0620"
             stroke-width="3"
             stroke-linecap="round"
             stroke-miterlimit="10"
             x1="154.55"
             y1="231.39101"
             x2="154.55"
             y2="252.59801"
             id="line854"
             style="stroke:#ffffff" />
          <line
             fill="none"
             stroke="#0e0620"
             stroke-width="3"
             stroke-linecap="round"
             stroke-miterlimit="10"
             x1="144.60899"
             y1="241.995"
             x2="164.49001"
             y2="241.995"
             id="line856"
             style="stroke:#ffffff" />
        </g>
        <g
           id="g864"
           style="stroke:#ffffff">
          <line
             fill="none"
             stroke="#0e0620"
             stroke-width="3"
             stroke-linecap="round"
             stroke-miterlimit="10"
             x1="320.13501"
             y1="132.746"
             x2="320.13501"
             y2="153.952"
             id="line860"
             style="stroke:#ffffff" />
          <line
             fill="none"
             stroke="#0e0620"
             stroke-width="3"
             stroke-linecap="round"
             stroke-miterlimit="10"
             x1="310.194"
             y1="143.349"
             x2="330.07501"
             y2="143.349"
             id="line862"
             style="stroke:#ffffff" />
        </g>
        <g
           id="g870"
           style="stroke:#ffffff">
          <line
             fill="none"
             stroke="#0e0620"
             stroke-width="3"
             stroke-linecap="round"
             stroke-miterlimit="10"
             x1="200.67"
             y1="483.10999"
             x2="200.67"
             y2="504.31601"
             id="line866"
             style="stroke:#ffffff" />
          <line
             fill="none"
             stroke="#0e0620"
             stroke-width="3"
             stroke-linecap="round"
             stroke-miterlimit="10"
             x1="210.61099"
             y1="493.71301"
             x2="190.73"
             y2="493.71301"
             id="line868"
             style="stroke:#ffffff" />
        </g>
      </g>
      <g
         id="starsSmall"
         style="stroke:#ffffff">
        <g
           id="g877"
           style="stroke:#ffffff">
          <line
             fill="none"
             stroke="#0e0620"
             stroke-width="3"
             stroke-linecap="round"
             stroke-miterlimit="10"
             x1="432.173"
             y1="380.51999"
             x2="432.173"
             y2="391.82999"
             id="line873"
             style="stroke:#ffffff" />
          <line
             fill="none"
             stroke="#0e0620"
             stroke-width="3"
             stroke-linecap="round"
             stroke-miterlimit="10"
             x1="426.871"
             y1="386.17499"
             x2="437.474"
             y2="386.17499"
             id="line875"
             style="stroke:#ffffff" />
        </g>
        <g
           id="g883"
           style="stroke:#ffffff">
          <line
             fill="none"
             stroke="#0e0620"
             stroke-width="3"
             stroke-linecap="round"
             stroke-miterlimit="10"
             x1="489.55499"
             y1="299.76501"
             x2="489.55499"
             y2="308.12399"
             id="line879"
             style="stroke:#ffffff" />
          <line
             fill="none"
             stroke="#0e0620"
             stroke-width="3"
             stroke-linecap="round"
             stroke-miterlimit="10"
             x1="485.63599"
             y1="303.94501"
             x2="493.47299"
             y2="303.94501"
             id="line881"
             style="stroke:#ffffff" />
        </g>
        <g
           id="g889"
           style="stroke:#ffffff">
          <line
             fill="none"
             stroke="#0e0620"
             stroke-width="3"
             stroke-linecap="round"
             stroke-miterlimit="10"
             x1="231.468"
             y1="291.009"
             x2="231.468"
             y2="299.36899"
             id="line885"
             style="stroke:#ffffff" />
          <line
             fill="none"
             stroke="#0e0620"
             stroke-width="3"
             stroke-linecap="round"
             stroke-miterlimit="10"
             x1="227.55"
             y1="295.189"
             x2="235.38699"
             y2="295.189"
             id="line887"
             style="stroke:#ffffff" />
        </g>
        <g
           id="g895"
           style="stroke:#ffffff">
          <line
             fill="none"
             stroke="#0e0620"
             stroke-width="3"
             stroke-linecap="round"
             stroke-miterlimit="10"
             x1="244.032"
             y1="547.539"
             x2="244.032"
             y2="555.89801"
             id="line891"
             style="stroke:#ffffff" />
          <line
             fill="none"
             stroke="#0e0620"
             stroke-width="3"
             stroke-linecap="round"
             stroke-miterlimit="10"
             x1="247.95"
             y1="551.71899"
             x2="240.11301"
             y2="551.71899"
             id="line893"
             style="stroke:#ffffff" />
        </g>
        <g
           id="g901"
           style="stroke:#ffffff">
          <line
             fill="none"
             stroke="#0e0620"
             stroke-width="3"
             stroke-linecap="round"
             stroke-miterlimit="10"
             x1="186.35899"
             y1="406.96701"
             x2="186.35899"
             y2="415.32599"
             id="line897"
             style="stroke:#ffffff" />
          <line
             fill="none"
             stroke="#0e0620"
             stroke-width="3"
             stroke-linecap="round"
             stroke-miterlimit="10"
             x1="190.27699"
             y1="411.146"
             x2="182.44"
             y2="411.146"
             id="line899"
             style="stroke:#ffffff" />
        </g>
        <g
           id="g907"
           style="stroke:#ffffff">
          <line
             fill="none"
             stroke="#0e0620"
             stroke-width="3"
             stroke-linecap="round"
             stroke-miterlimit="10"
             x1="480.29599"
             y1="406.96701"
             x2="480.29599"
             y2="415.32599"
             id="line903"
             style="stroke:#ffffff" />
          <line
             fill="none"
             stroke="#0e0620"
             stroke-width="3"
             stroke-linecap="round"
             stroke-miterlimit="10"
             x1="484.215"
             y1="411.146"
             x2="476.37799"
             y2="411.146"
             id="line905"
             style="stroke:#ffffff" />
        </g>
      </g>
      <g
         id="circlesBig"
         style="stroke:#ffffff">
        <circle
           fill="none"
           stroke="#0e0620"
           stroke-width="3"
           stroke-linecap="round"
           stroke-miterlimit="10"
           cx="588.97699"
           cy="255.978"
           r="7.9520001"
           id="circle910"
           style="stroke:#ffffff" />
        <circle
           fill="none"
           stroke="#0e0620"
           stroke-width="3"
           stroke-linecap="round"
           stroke-miterlimit="10"
           cx="450.06601"
           cy="320.259"
           r="7.9520001"
           id="circle912"
           style="stroke:#ffffff" />
        <circle
           fill="none"
           stroke="#0e0620"
           stroke-width="3"
           stroke-linecap="round"
           stroke-miterlimit="10"
           cx="168.30299"
           cy="353.75299"
           r="7.9520001"
           id="circle914"
           style="stroke:#ffffff" />
        <circle
           fill="none"
           stroke="#0e0620"
           stroke-width="3"
           stroke-linecap="round"
           stroke-miterlimit="10"
           cx="429.522"
           cy="201.185"
           r="7.9520001"
           id="circle916"
           style="stroke:#ffffff" />
        <circle
           fill="none"
           stroke="#0e0620"
           stroke-width="3"
           stroke-linecap="round"
           stroke-miterlimit="10"
           cx="200.67"
           cy="176.313"
           r="7.9520001"
           id="circle918"
           style="stroke:#ffffff" />
        <circle
           fill="none"
           stroke="#0e0620"
           stroke-width="3"
           stroke-linecap="round"
           stroke-miterlimit="10"
           cx="133.343"
           cy="477.01401"
           r="7.9520001"
           id="circle920"
           style="stroke:#ffffff" />
        <circle
           fill="none"
           stroke="#0e0620"
           stroke-width="3"
           stroke-linecap="round"
           stroke-miterlimit="10"
           cx="283.521"
           cy="568.03302"
           r="7.9520001"
           id="circle922"
           style="stroke:#ffffff" />
        <circle
           fill="none"
           stroke="#0e0620"
           stroke-width="3"
           stroke-linecap="round"
           stroke-miterlimit="10"
           cx="413.61801"
           cy="482.38699"
           r="7.9520001"
           id="circle924"
           style="stroke:#ffffff" />
      </g>
      <g
         id="circlesSmall"
         style="stroke:#ffffff">
        <circle
           fill="#0e0620"
           cx="549.87903"
           cy="296.40201"
           r="2.651"
           id="circle927"
           style="stroke:#ffffff" />
        <circle
           fill="#0e0620"
           cx="253.28999"
           cy="229.24001"
           r="2.651"
           id="circle929"
           style="stroke:#ffffff" />
        <circle
           fill="#0e0620"
           cx="434.82401"
           cy="263.931"
           r="2.651"
           id="circle931"
           style="stroke:#ffffff" />
        <circle
           fill="#0e0620"
           cx="183.70799"
           cy="544.17603"
           r="2.651"
           id="circle933"
           style="stroke:#ffffff" />
        <circle
           fill="#0e0620"
           cx="382.51501"
           cy="530.92297"
           r="2.651"
           id="circle935"
           style="stroke:#ffffff" />
        <circle
           fill="#0e0620"
           cx="130.69299"
           cy="305.608"
           r="2.651"
           id="circle937"
           style="stroke:#ffffff" />
        <circle
           fill="#0e0620"
           cx="480.29599"
           cy="477.01401"
           r="2.651"
           id="circle939"
           style="stroke:#ffffff" />
      </g>
    </g>
    <path
       id="cord"
       fill="none"
       stroke="#0e0620"
       stroke-width="0.79375"
       stroke-linecap="round"
       stroke-linejoin="round"
       stroke-miterlimit="10"
       d="m -144.84976,143.55997 c 0,0 -14.42694,10.45131 -30.51705,10.11185 -0.60325,-0.0127 -1.30333,-0.0638 -2.07459,-0.145 -18.00172,-1.89918 -35.53037,-11.63187 -44.27273,-27.48227 -0.24024,-0.4355 -0.4744,-0.87312 -0.70221,-1.31339 -4.86701,-9.39562 -9.85811,-22.06228 -8.48651,-31.437"
       style="fill:none;stroke:#ffffff" />
    <path
       id="backpack"
       fill="#ffffff"
       stroke="#0e0620"
       stroke-width="0.79375"
       stroke-linecap="round"
       stroke-linejoin="round"
       stroke-miterlimit="10"
       d="m -123.65187,157.38259 -17.12542,-4.59131 c -2.93317,-0.78634 -4.6736,-3.8018 -3.88726,-6.73497 l 4.15237,-15.48791 c 1.02896,-3.83752 4.9739,-6.11453 8.81142,-5.08556 l 13.85067,3.71343 c 3.83752,1.02896 6.11452,4.9739 5.08556,8.81141 l -4.15237,15.48792 c -0.78635,2.93291 -3.80154,4.67333 -6.73497,3.88699 z"
       style="fill:#000000;stroke:#ffffff" />
    <g
       id="armR"
       style="fill:#000000;stroke:#ffffff"
       transform="matrix(0.26458333,0,0,0.26458333,-213.12443,37.079463)">
      <path
         fill="#ffffff"
         stroke="#0e0620"
         stroke-width="3"
         stroke-linecap="round"
         stroke-linejoin="round"
         stroke-miterlimit="10"
         d="m 360.633,363.039 c 1.352,1.061 4.91,5.056 5.824,6.634 l 27.874,47.634 c 3.855,6.649 1.59,15.164 -5.059,19.02 v 0 c -6.649,3.855 -15.164,1.59 -19.02,-5.059 l -5.603,-9.663"
         id="path950"
         style="fill:#000000;stroke:#ffffff" />
      <path
         fill="#ffffff"
         stroke="#0e0620"
         stroke-width="3"
         stroke-linecap="round"
         stroke-linejoin="round"
         stroke-miterlimit="10"
         d="m 388.762,434.677 c 5.234,-3.039 7.731,-8.966 6.678,-14.594 2.344,1.343 4.383,3.289 5.837,5.793 4.411,7.596 1.829,17.33 -5.767,21.741 -7.596,4.411 -17.33,1.829 -21.741,-5.767 -1.754,-3.021 -2.817,-5.818 -2.484,-9.046 4.34,4.551 11.802,5.169 17.477,1.873 z"
         id="path952"
         style="fill:#000000;stroke:#ffffff" />
    </g>
    <g
       id="armL"
       style="fill:#000000;stroke:#ffffff"
       transform="matrix(0.26458333,0,0,0.26458333,-213.12443,37.079463)">
      <path
         fill="#ffffff"
         stroke="#0e0620"
         stroke-width="3"
         stroke-linecap="round"
         stroke-linejoin="round"
         stroke-miterlimit="10"
         d="m 301.301,347.66 c -1.702,0.242 -5.91,1.627 -7.492,2.536 l -47.965,27.301 c -6.664,3.829 -8.963,12.335 -5.134,18.999 v 0 c 3.829,6.664 12.335,8.963 18.999,5.134 l 9.685,-5.564"
         id="path955"
         style="fill:#000000;stroke:#ffffff" />
      <path
         fill="#ffffff"
         stroke="#0e0620"
         stroke-width="3"
         stroke-linecap="round"
         stroke-linejoin="round"
         stroke-miterlimit="10"
         d="m 241.978,395.324 c -3.012,-5.25 -2.209,-11.631 1.518,-15.977 -2.701,-0.009 -5.44,0.656 -7.952,2.096 -7.619,4.371 -10.253,14.09 -5.883,21.71 4.371,7.619 14.09,10.253 21.709,5.883 3.03,-1.738 5.35,-3.628 6.676,-6.59 -6.033,1.768 -12.803,-1.429 -16.068,-7.122 z"
         id="path957"
         style="fill:#000000;stroke:#ffffff" />
    </g>
    <g
       id="body"
       style="fill:#000000;stroke:#ffffff"
       transform="matrix(0.26458333,0,0,0.26458333,-213.12443,37.079463)">
      <path
         fill="#ffffff"
         stroke="#0e0620"
         stroke-width="3"
         stroke-linecap="round"
         stroke-linejoin="round"
         stroke-miterlimit="10"
         d="m 353.351,365.387 c -7.948,1.263 -16.249,0.929 -24.48,-1.278 -8.232,-2.207 -15.586,-6.07 -21.836,-11.14 -17.004,4.207 -31.269,17.289 -36.128,35.411 l -1.374,5.123 c -7.112,26.525 8.617,53.791 35.13,60.899 v 0 c 26.513,7.108 53.771,-8.632 60.883,-35.158 l 1.374,-5.123 c 4.858,-18.122 -0.949,-36.585 -13.569,-48.734 z"
         id="path960"
         style="fill:#000000;stroke:#ffffff" />
      <path
         fill="none"
         stroke="#0e0620"
         stroke-width="3"
         stroke-linecap="round"
         stroke-linejoin="round"
         stroke-miterlimit="10"
         d="m 269.678,394.912 v 0 c 26.3,20.643 59.654,29.585 93.106,25.724 l 2.419,-0.114"
         id="path962"
         style="fill:#000000;stroke:#ffffff" />
    </g>
    <g
       id="legs"
       style="fill:#000000;stroke:#ffffff"
       transform="matrix(0.26458333,0,0,0.26458333,-213.12443,37.079463)">
      <g
         id="legR"
         style="fill:#000000;stroke:#ffffff">
        <path
           fill="#ffffff"
           stroke="#0e0620"
           stroke-width="3"
           stroke-linecap="round"
           stroke-linejoin="round"
           stroke-miterlimit="10"
           d="m 312.957,456.734 -14.315,53.395 c -1.896,7.07 2.299,14.338 9.37,16.234 v 0 c 7.07,1.896 14.338,-2.299 16.234,-9.37 l 17.838,-66.534 c -8.633,5.427 -18.558,6.928 -29.127,6.275 z"
           id="path965"
           style="fill:#000000;stroke:#ffffff" />
        <line
           fill="none"
           stroke="#0e0620"
           stroke-width="3"
           stroke-linecap="round"
           stroke-linejoin="round"
           stroke-miterlimit="10"
           x1="304.883"
           y1="486.849"
           x2="330.487"
           y2="493.71301"
           id="line967"
           style="fill:#000000;stroke:#ffffff" />
      </g>
      <g
         id="legL"
         style="fill:#000000;stroke:#ffffff">
        <path
           fill="#ffffff"
           stroke="#0e0620"
           stroke-width="3"
           stroke-linecap="round"
           stroke-linejoin="round"
           stroke-miterlimit="10"
           d="M 296.315,452.273 282,505.667 c -1.896,7.07 -9.164,11.265 -16.234,9.37 v 0 c -7.07,-1.896 -11.265,-9.164 -9.37,-16.234 l 17.838,-66.534 c 4.759,9.017 12.602,15.281 22.081,20.004 z"
           id="path970"
           style="fill:#000000;stroke:#ffffff" />
        <line
           fill="none"
           stroke="#0e0620"
           stroke-width="3"
           stroke-linecap="round"
           stroke-linejoin="round"
           stroke-miterlimit="10"
           x1="262.638"
           y1="475.522"
           x2="288.241"
           y2="482.38699"
           id="line972"
           style="fill:#000000;stroke:#ffffff" />
      </g>
    </g>
    <g
       id="head"
       style="fill:#000000;stroke:#ffffff"
       transform="matrix(0.26458333,0,0,0.26458333,-213.12443,37.079463)">
      <ellipse
         transform="matrix(0.259,-0.9659,0.9659,0.259,-51.5445,563.2371)"
         fill="#ffffff"
         stroke="#0e0620"
         stroke-width="3"
         stroke-linecap="round"
         stroke-linejoin="round"
         stroke-miterlimit="10"
         cx="341.29501"
         cy="315.211"
         rx="61.960999"
         ry="60.305"
         id="ellipse976"
         style="fill:#000000;stroke:#ffffff" />
      <path
         id="headStripe"
         fill="none"
         stroke="#0e0620"
         stroke-width="3"
         stroke-linecap="round"
         stroke-linejoin="round"
         stroke-miterlimit="10"
         d="m 330.868,261.338 c -7.929,1.72 -15.381,5.246 -21.799,10.246"
         style="fill:#000000;stroke:#ffffff" />
      <path
         fill="#ffffff"
         stroke="#0e0620"
         stroke-width="3"
         stroke-linecap="round"
         stroke-linejoin="round"
         stroke-miterlimit="10"
         d="m 380.857,346.164 c -1.247,4.651 -4.668,8.421 -9.196,10.06 -9.332,3.377 -26.2,7.817 -42.301,3.5 -16.101,-4.317 -28.485,-16.599 -34.877,-24.192 -3.101,-3.684 -4.177,-8.66 -2.93,-13.311 l 7.453,-27.798 c 0.756,-2.82 3.181,-4.868 6.088,-5.13 6.755,-0.61 20.546,-0.608 41.785,5.087 21.239,5.695 33.181,12.591 38.725,16.498 2.387,1.682 3.461,4.668 2.705,7.488 z"
         id="path979"
         style="fill:#000000;stroke:#ffffff" />
      <g
         clip-path="url(#GlassClip)"
         id="g982"
         style="fill:#000000;stroke:#ffffff">
        <polygon
           id="glassShine"
           fill="none"
           stroke="#0e0620"
           stroke-width="3"
           stroke-miterlimit="10"
           points="278.436,375.599 383.003,264.076 364.393,251.618 264.807,364.928 "
           style="fill:#000000;stroke:#ffffff" />
      </g>
    </g>
  </g>
</svg>
